<svg width="14" height="14" viewBox="0 0 14 14" fill="none" xmlns="http://www.w3.org/2000/svg">
<path d="M7 0.125C4.59063 0.125 2.625 2.09063 2.625 4.5C2.625 6.00625 3.39375 7.34375 4.55875 8.13313C2.32938 9.08937 0.75 11.3019 0.75 13.875H2C2 11.1062 4.23125 8.875 7 8.875C9.76875 8.875 12 11.1062 12 13.875H13.25C13.25 11.3019 11.6706 9.09 9.44125 8.1325C10.0358 7.73111 10.523 7.19012 10.8601 6.55687C11.1972 5.92361 11.374 5.21739 11.375 4.5C11.375 2.09063 9.40938 0.125 7 0.125ZM7 1.375C8.73313 1.375 10.125 2.76688 10.125 4.5C10.125 6.23313 8.73313 7.625 7 7.625C5.26687 7.625 3.875 6.23313 3.875 4.5C3.875 2.76688 5.26687 1.375 7 1.375Z" fill="#0B0B0D"/>
</svg>
