<svg width="16" height="15" viewBox="0 0 16 15" fill="none" xmlns="http://www.w3.org/2000/svg">
<path d="M4.34375 0.8125C2.01669 0.8125 0.125 2.72613 0.125 5.03125C0.125 5.83563 0.4895 6.532 0.828125 7.03544C1.02761 7.33359 1.2574 7.61031 1.51381 7.86119L7.595 13.9609L7.99944 14.3654L8.40388 13.9609L14.4856 7.86119C14.4856 7.86119 15.875 6.63719 15.875 5.03125C15.875 2.72613 13.9833 0.8125 11.6562 0.8125C9.72462 0.8125 8.48094 1.97463 8 2.46513C7.51906 1.97463 6.27537 0.8125 4.34375 0.8125ZM4.34375 1.9375C6.0245 1.9375 7.57812 3.57212 7.57812 3.57212L8 4.04688L8.42188 3.57212C8.42188 3.57212 9.9755 1.9375 11.6562 1.9375C13.3679 1.9375 14.75 3.3415 14.75 5.03125C14.75 5.89919 13.6953 7.07031 13.6953 7.07031L8 12.7656L2.30469 7.07031C2.30469 7.07031 2.03244 6.80875 1.75963 6.40206C1.48738 5.9965 1.25 5.46663 1.25 5.03125C1.25 3.3415 2.63206 1.9375 4.34375 1.9375Z" fill="#0B0B0D"/>
</svg>
