<svg width="120" height="38" viewBox="0 0 120 38" fill="none" xmlns="http://www.w3.org/2000/svg">
<path d="M38.05 12.64V12.1H45.37C47.07 12.1 48.5 12.62 49.66 13.66C50.84 14.68 51.43 16.06 51.43 17.8C51.43 19.54 50.84 20.93 49.66 21.97C48.5 22.99 47.07 23.5 45.37 23.5H42.34V30.04C42.34 30.32 42.48 30.46 42.76 30.46H44.77V31H38.05V30.46H39.46C39.74 30.46 39.88 30.32 39.88 30.04V13C39.88 12.76 39.74 12.64 39.46 12.64H38.05ZM45.22 12.94H42.34V22.66H45.22C46.4 22.66 47.33 22.18 48.01 21.22C48.69 20.24 49.03 19.1 49.03 17.8C49.03 16.5 48.69 15.37 48.01 14.41C47.33 13.43 46.4 12.94 45.22 12.94ZM53.7198 30.04V12.52C53.7198 12.24 53.5798 12.1 53.2998 12.1H51.8898V11.56H53.3598C54.5598 11.56 55.3998 11.5 55.8798 11.38V30.04C55.8798 30.32 56.0198 30.46 56.2998 30.46H57.7098V31H51.8898V30.46H53.2998C53.5798 30.46 53.7198 30.32 53.7198 30.04ZM66.587 24.01L66.617 22.96V21.91C66.617 19.57 65.857 18.4 64.337 18.4C63.677 18.4 63.157 18.63 62.777 19.09C62.417 19.53 62.237 20.05 62.237 20.65C62.237 21.25 62.317 21.77 62.477 22.21C62.137 22.51 61.667 22.66 61.067 22.66C60.467 22.66 60.167 22.17 60.167 21.19C60.167 20.21 60.547 19.38 61.307 18.7C62.087 18.02 63.187 17.68 64.607 17.68C67.387 17.68 68.777 19.32 68.777 22.6V28.75C68.777 29.83 69.077 30.37 69.677 30.37C69.957 30.37 70.197 30.24 70.397 29.98C70.617 29.72 70.727 29.42 70.727 29.08C70.727 28.74 70.697 28.42 70.637 28.12L71.207 28.03C71.287 28.33 71.327 28.66 71.327 29.02C71.327 29.74 71.107 30.31 70.667 30.73C70.247 31.15 69.687 31.36 68.987 31.36C68.287 31.36 67.717 31.08 67.277 30.52C66.837 29.94 66.617 29.08 66.617 27.94V27.4C66.277 28.76 65.737 29.76 64.997 30.4C64.257 31.04 63.397 31.36 62.417 31.36C61.457 31.36 60.677 31.06 60.077 30.46C59.497 29.84 59.207 29.03 59.207 28.03C59.207 27.01 59.677 26.11 60.617 25.33C61.557 24.53 62.907 24.13 64.667 24.13C65.047 24.13 65.687 24.18 66.587 24.28V24.01ZM63.107 30.22C63.947 30.22 64.697 29.75 65.357 28.81C66.037 27.85 66.437 26.51 66.557 24.79C66.357 24.77 66.077 24.76 65.717 24.76C64.117 24.76 62.967 25.1 62.267 25.78C61.587 26.44 61.247 27.21 61.247 28.09C61.247 28.67 61.417 29.17 61.757 29.59C62.097 30.01 62.547 30.22 63.107 30.22ZM84.7366 22.24V30.1C84.7366 30.34 84.8766 30.46 85.1566 30.46H86.5666V31H81.1666V30.46H82.1566C82.4366 30.46 82.5766 30.34 82.5766 30.1V21.85C82.5766 20.83 82.3466 20.08 81.8866 19.6C81.4466 19.1 80.8566 18.85 80.1166 18.85C79.0766 18.85 78.2166 19.47 77.5366 20.71C76.8566 21.93 76.5166 23.69 76.5166 25.99V30.04C76.5166 30.32 76.6566 30.46 76.9366 30.46H77.9266V31H72.5266V30.46H73.9366C74.2166 30.46 74.3566 30.34 74.3566 30.1V19C74.3566 18.72 74.2166 18.58 73.9366 18.58H72.5266V18.04H73.9966C75.1966 18.04 76.0366 17.98 76.5166 17.86V21.94C77.1966 19.1 78.6966 17.68 81.0166 17.68C82.0566 17.68 82.9366 18.06 83.6566 18.82C84.3766 19.56 84.7366 20.7 84.7366 22.24ZM91.1521 14.86H91.6021V18.04H94.6021V18.58H91.6021V28.75C91.6021 29.83 91.9021 30.37 92.5021 30.37C92.7821 30.37 93.0221 30.24 93.2221 29.98C93.4421 29.72 93.5521 29.42 93.5521 29.08C93.5521 28.74 93.5221 28.42 93.4621 28.12L94.0321 28.03C94.1121 28.33 94.1521 28.66 94.1521 29.02C94.1521 29.74 93.9321 30.31 93.4921 30.73C93.0721 31.15 92.5121 31.36 91.8121 31.36C91.1121 31.36 90.5421 31.08 90.1021 30.52C89.6621 29.94 89.4421 29.08 89.4421 27.94V19C89.4421 18.72 89.3021 18.58 89.0221 18.58H87.6121V18.04H89.0821C89.7221 18.04 90.4121 16.98 91.1521 14.86ZM97.3452 30.04V12.52C97.3452 12.24 97.2052 12.1 96.9252 12.1H95.5152V11.56H96.9852C98.1852 11.56 99.0252 11.5 99.5052 11.38V30.04C99.5052 30.32 99.6452 30.46 99.9252 30.46H101.335V31H95.5152V30.46H96.9252C97.2052 30.46 97.3452 30.32 97.3452 30.04ZM110.332 18.04H114.142V18.58H113.032C112.852 18.58 112.712 18.72 112.612 19L107.422 32.89C107.362 33.07 107.262 33.34 107.122 33.7L106.792 34.51C106.732 34.69 106.642 34.93 106.522 35.23C106.402 35.55 106.302 35.79 106.222 35.95C106.142 36.13 106.042 36.34 105.922 36.58C105.782 36.88 105.582 37.16 105.322 37.42C105.062 37.7 104.792 37.84 104.512 37.84C104.232 37.84 103.932 37.66 103.612 37.3C103.312 36.96 103.132 36.59 103.072 36.19C104.892 35.41 106.132 34.11 106.792 32.29L107.302 30.91L102.862 19C102.762 18.72 102.622 18.58 102.442 18.58H101.332V18.04H106.432V18.58H104.932L108.382 28.06L111.862 18.58H110.332V18.04ZM114.929 30.88C114.609 30.54 114.449 30.14 114.449 29.68C114.449 29.22 114.609 28.83 114.929 28.51C115.269 28.17 115.669 28 116.129 28C116.589 28 116.979 28.17 117.299 28.51C117.639 28.83 117.809 29.22 117.809 29.68C117.809 30.14 117.639 30.54 117.299 30.88C116.979 31.2 116.589 31.36 116.129 31.36C115.669 31.36 115.269 31.2 114.929 30.88Z" fill="#0B0B0D"/>
<path d="M13.0177 35.2713C-3.76901 26.5322 -0.0838613 8.5001 3.85705 0.576468C24.3043 5.36416 21.9995 25.5756 18.2912 35.0828C8.30629 21.6431 9.0768 13.6559 8.19261 18.4633C7.48527 22.3092 11.1146 31.2711 13.0177 35.2713Z" fill="#BED579"/>
<g clip-path="url(#clip0_4_3118)">
<path d="M17.2881 29.9536C27.7478 29.9536 28.5905 18.5123 28.6578 13.0752C28.6585 12.9273 28.636 12.7807 28.5918 12.6442C28.5476 12.5076 28.4825 12.3839 28.4004 12.2803C28.3183 12.1766 28.2209 12.0952 28.1139 12.0408C28.007 11.9865 27.8926 11.9602 27.7776 11.9637C12.9131 12.3147 12.9131 21.5802 12.9131 29.9536V34.4536" stroke="#3D713C" stroke-width="2" stroke-linecap="round" stroke-linejoin="round"/>
<path d="M12.913 29.9541C12.913 29.9541 12.913 23.2041 19.913 22.0791" stroke="#3D713C" stroke-width="2" stroke-linecap="round" stroke-linejoin="round"/>
</g>
<defs>
<clipPath id="clip0_4_3118">
<rect width="21" height="27" fill="white" transform="translate(12 10.9995)"/>
</clipPath>
</defs>
</svg>
