<svg width="16" height="16" viewBox="0 0 16 16" fill="none" xmlns="http://www.w3.org/2000/svg">
<path d="M9.6874 0.6875C6.5869 0.6875 4.0624 3.212 4.0624 6.3125C4.0624 7.65969 4.5349 8.89437 5.32802 9.86356L0.845459 14.345L1.6549 15.155L6.1369 10.6724C7.13789 11.4931 8.39301 11.9403 9.6874 11.9375C12.7879 11.9375 15.3124 9.413 15.3124 6.3125C15.3124 3.212 12.7879 0.6875 9.6874 0.6875ZM9.6874 1.8125C12.1793 1.8125 14.1874 3.82062 14.1874 6.3125C14.1874 8.80437 12.1793 10.8125 9.6874 10.8125C7.19552 10.8125 5.1874 8.80437 5.1874 6.3125C5.1874 3.82062 7.19552 1.8125 9.6874 1.8125Z" fill="#0B0B0D"/>
</svg>
