<svg width="21" height="18" viewBox="0 0 21 18" fill="none" xmlns="http://www.w3.org/2000/svg">
<path d="M5.625 0C2.52225 0 0 2.54155 0 5.60305C0 6.67137 0.486 7.59625 0.9375 8.26488C1.20348 8.66086 1.50986 9.02839 1.85175 9.36158L9.96 17.4629L10.4992 18L11.0385 17.4629L19.1475 9.36158C19.1475 9.36158 21 7.73595 21 5.60305C21 2.54155 18.4778 0 15.375 0C12.7995 0 11.1412 1.54345 10.5 2.1949C9.85875 1.54345 8.2005 0 5.625 0ZM5.625 1.49415C7.866 1.49415 9.9375 3.66514 9.9375 3.66514L10.5 4.29568L11.0625 3.66514C11.0625 3.66514 13.134 1.49415 15.375 1.49415C17.6572 1.49415 19.5 3.35884 19.5 5.60305C19.5 6.75579 18.0938 8.3112 18.0938 8.3112L10.5 15.8753L2.90625 8.3112C2.90625 8.3112 2.54325 7.96381 2.1795 7.42367C1.8165 6.88503 1.5 6.18129 1.5 5.60305C1.5 3.35884 3.34275 1.49415 5.625 1.49415Z" fill="#0B0B0D"/>
</svg>
